<svg width="13" height="13" viewBox="0 0 13 13" fill="none" xmlns="http://www.w3.org/2000/svg">
<path fill-rule="evenodd" clip-rule="evenodd" d="M0.577452 13.4223C0.902889 13.7477 1.43053 13.7477 1.75596 13.4223L7.00004 8.17818L12.2441 13.4223C12.5696 13.7477 13.0972 13.7477 13.4226 13.4223C13.7481 13.0968 13.7481 12.5692 13.4226 12.2438L8.17855 6.99967L13.4226 1.7556C13.7481 1.43016 13.7481 0.902522 13.4226 0.577085C13.0972 0.251649 12.5696 0.251649 12.2441 0.577085L7.00004 5.82116L1.75596 0.577085C1.43053 0.251649 0.902889 0.251649 0.577452 0.577085C0.252015 0.902522 0.252015 1.43016 0.577452 1.7556L5.82153 6.99967L0.577452 12.2438C0.252015 12.5692 0.252015 13.0968 0.577452 13.4223Z" fill="#7658E0"/>
</svg>
