<svg width="20" height="20" viewBox="0 0 20 20" fill="none" xmlns="http://www.w3.org/2000/svg">
<path fill-rule="evenodd" clip-rule="evenodd" d="M0 10C0 15.5228 4.47715 20 10 20C15.5228 20 20 15.5228 20 10C20 4.47715 15.5228 0 10 0C4.47715 0 0 4.47715 0 10ZM18 10C18 14.4183 14.4183 18 10 18C5.58172 18 2 14.4183 2 10C2 5.58172 5.58172 2 10 2C14.4183 2 18 5.58172 18 10ZM9 7C9 6.44772 9.44771 6 10 6C10.5523 6 11 6.44772 11 7V9H13C13.5523 9 14 9.44771 14 10C14 10.5523 13.5523 11 13 11H11V13C11 13.5523 10.5523 14 10 14C9.44771 14 9 13.5523 9 13V11H7C6.44772 11 6 10.5523 6 10C6 9.44771 6.44772 9 7 9H9V7Z" fill="#7658E0"/>
</svg>
